# xmcd CD database file
# Copyright (C) 1993-2000  Ti Kan
#
# Track frame offsets:
#	150
#	15528
#	29762
#	45055
#	61377
#	76795
#	92266
#	106027
#	118404
#	133382
#	146979
#	158634
#	171886
#	183511
#	195234
#	209796
#	224697
#	239124
#	252611
#	266180
#
# Disc length: 3735 seconds
#
# Revision: 1
# Processed by: cddbd v1.5.1PL0 Copyright (c) Steve Scherf et al.
# Submitted via: xmcd 2.6 PL0
#
DISCID=2f0e9514
DTITLE=Louis Armstrong - After you've gone
DYEAR=1900
DGENRE=
TTITLE0=Shine
TTITLE1=Them There Eyes
TTITLE2=Georgia Om My Mind
TTITLE3=Keepin'Out of Mischief Now
TTITLE4=High Society
TTITLE5=Basin Street Blues
TTITLE6=Mississippi Basin
TTITLE7=Sweet Sue, Just You
TTITLE8=Shoe Shine Boy
TTITLE9=Solitude
TTITLE10=Alexander's Rag
TTITLE11=On The Sunny Side Of The Street
TTITLE12=Satchel Mouth Swing
TTITLE13=Jubilee
TTITLE14=Savoy Blues
TTITLE15=Wolverine Blues
TTITLE16=When It's Sleepy Time Down South
TTITLE17=You Rascal You
TTITLE18=Do You Know What It Means To Miss New Orleans
TTITLE19=Where The Blues is Born In New Orleans
EXTD=
EXTT0=
EXTT1=
EXTT2=
EXTT3=
EXTT4=
EXTT5=
EXTT6=
EXTT7=
EXTT8=
EXTT9=
EXTT10=
EXTT11=
EXTT12=
EXTT13=
EXTT14=
EXTT15=
EXTT16=
EXTT17=
EXTT18=
EXTT19=
PLAYORDER=
